# xmcd
#
# Track frame offsets: 
#        182
#        12787
#        25510
#        36010
#        48545
#        61152
#        70110
#        85025
#        95975
#        109520
#        120112
#        130182
#        141327
#        150947
#        162622
#        174365
#        186450
#        198237
#        208882
#        219595
#        232127
#        244305
#        255280
#        266230
#        277220
#        288015
#
# Disc length: 3979 seconds
#
# Revision: 2
# Processed by: cddbd v1.4PL0 Copyright (c) Steve Scherf et al.
# Submitted via: ExactAudioCopy v0.90b4
#
DISCID=760f891a
DTITLE=James, Etta - Tell Mama
DYEAR=1988
DGENRE=Blues
TTITLE0=If I Can't Have You
TTITLE1=Spoonful
TTITLE2=Nobody But You
TTITLE3=Next Door To The Blues
TTITLE4=Somthing Got A Hold On Me
TTITLE5=(You Better) Do Right
TTITLE6=I'm Loving You More Everybody
TTITLE7=Breaking Point
TTITLE8=Mellow Fellow
TTITLE9=Steal Away
TTITLE10=Just A Little Bit
TTITLE11=Don't Lose Your Good Thing
TTITLE12=Watch Dog
TTITLE13=I'm Gonna Take What He's Got
TTITLE14=I'd Rather Go Blind
TTITLE15=The Love Of My Man
TTITLE16=It Hurts Me So Much
TTITLE17=Tell Mama
TTITLE18=My Mother-In-Law
TTITLE19=Security
TTITLE20=The Same Rope
TTITLE21=I Got You Babe
TTITLE22=I Worship The Ground You Walk On
TTITLE23=You Got It
TTITLE24=Fire
TTITLE25=Miss Pitiful
EXTD=A Chess release from Charly Records Ltd\nCD RED 7\n
EXTT0=
EXTT1=
EXTT2=
EXTT3=
EXTT4=
EXTT5=
EXTT6=
EXTT7=
EXTT8=
EXTT9=
EXTT10=
EXTT11=
EXTT12=
EXTT13=
EXTT14=
EXTT15=
EXTT16=
EXTT17=
EXTT18=
EXTT19=
EXTT20=
EXTT21=
EXTT22=
EXTT23=
EXTT24=
EXTT25=
PLAYORDER=
